<svg width="152" height="60" viewBox="0 0 152 60" fill="none" xmlns="http://www.w3.org/2000/svg">
<g clip-path="url(#clip0_4_294)">
<path d="M79.8418 5.89946C87.3551 5.89946 93.3339 11.9312 93.3339 21.5873C93.3339 31.2434 87.3551 37.3809 79.8418 37.3809C72.3286 37.3809 72.0905 35.2381 70.3974 32.6719V51.5608H61.0059V6.3492H70.3974V10.6878C72.0905 7.98941 75.3445 5.92591 79.8418 5.92591V5.89946ZM77.0641 14.1005C73.5455 14.1005 70.3709 16.7989 70.3709 21.6667C70.3709 26.5344 73.5455 29.2328 77.0641 29.2328C80.5826 29.2328 83.8101 26.4815 83.8101 21.6137C83.8101 16.746 80.6355 14.1005 77.0641 14.1005Z" fill="url(#paint0_linear_4_294)"/>
<path d="M114.524 6.34911H112.301V10.6877C110.661 7.98932 107.407 5.92583 102.857 5.92583C98.3067 5.92583 95.0792 7.75122 92.6189 10.9787C94.4178 13.8888 95.4496 17.5396 95.4496 21.6137C95.4496 25.6877 94.4178 29.3914 92.6189 32.3015C95.0792 35.5555 98.73 37.4073 102.804 37.4073C106.878 37.4073 110.608 35.3174 112.301 32.6454V36.984H121.693V23.3861L114.524 6.34911ZM105.608 29.2327C102.09 29.2327 98.9152 26.4814 98.9152 21.6137C98.9152 16.7459 102.09 14.1004 105.608 14.1004C109.127 14.1004 112.301 16.7988 112.301 21.6666C112.301 26.5343 109.18 29.2327 105.608 29.2327Z" fill="url(#paint1_linear_4_294)"/>
<path d="M141.402 6.34927H151.561L132.354 51.508H122.248L129.286 35.926L116.825 6.34927H127.301L134.391 25.5027L141.428 6.34927H141.402Z" fill="url(#paint2_linear_4_294)"/>
<path d="M75.4238 50.8727V51.0843H72.7783V50.8727H73.281C73.3339 50.8727 73.3603 50.8462 73.3868 50.8198C73.4132 50.7933 73.4397 50.7139 73.4397 50.6346V45.8198C73.1751 45.661 72.9635 45.5023 72.8048 45.3436V45.2113H74.8154V50.7404C74.8154 50.7404 74.8154 50.7933 74.8418 50.8198C74.8418 50.8198 74.8683 50.8462 74.8947 50.8727H75.4238ZM76.0587 45.2642C76.3497 45.1584 76.6672 45.1055 76.9582 45.1055C77.8577 45.1055 78.3074 45.7668 78.3074 47.1161V50.7933C78.3074 50.7933 78.3074 50.8198 78.3603 50.8462H78.8894V51.0578H76.2439V50.8462H76.773C76.773 50.8462 76.7995 50.8198 76.8259 50.7933C76.8259 50.7933 76.8524 50.7404 76.8788 50.7139C76.9053 50.6875 76.8788 50.6346 76.8788 50.6081V46.878C76.8788 46.2166 76.5878 45.661 75.9794 45.2642H76.0587Z" fill="#004087"/>
<path d="M82.3809 51.164C81.6137 51.164 80.9788 50.8994 80.5026 50.3968C80.0264 49.8941 79.7883 49.2063 79.7883 48.3862C79.7883 47.5661 80.0264 46.7195 80.4762 46.0846C80.9259 45.4497 81.6137 45.1322 82.4867 45.1322C83.3598 45.1322 83.6508 45.291 84.0476 45.6349C84.4709 45.9523 84.7354 46.4285 84.8412 46.9841C84.8942 47.1693 84.8412 47.3015 84.7354 47.4603C84.6296 47.5925 84.4709 47.6719 84.2857 47.6719H82.7513C83.3598 47.3545 83.6508 46.9576 83.6243 46.4021C83.6243 46.1375 83.5185 45.9259 83.3068 45.7407C83.0952 45.5555 82.8307 45.5026 82.5132 45.5026C82.1957 45.5026 81.8518 45.7142 81.6137 46.1111C81.3756 46.5079 81.2434 47.1164 81.2169 47.9365C81.2169 48.6507 81.4021 49.2328 81.8254 49.656C82.2486 50.0793 82.8042 50.3174 83.4656 50.3174C84.127 50.3174 84.4709 50.2116 84.7619 49.9735L84.8941 50.1322C84.5238 50.4497 84.1005 50.6878 83.6508 50.8994C83.1746 51.0846 82.7513 51.1904 82.3545 51.1904H82.3809V51.164Z" fill="#004087"/>
<path d="M87.9897 43.439V49.7088C87.9897 50.0263 88.0426 50.1586 88.1484 50.2908C88.2542 50.4231 88.3865 50.5289 88.5188 50.5554C88.6511 50.5818 88.8363 50.6083 89.0479 50.5554C89.2595 50.5025 89.4183 50.5025 89.5505 50.4496C89.6828 50.4231 89.8151 50.3702 89.9738 50.3173L90.0796 50.4496C89.7357 50.6877 89.3654 50.8729 88.995 51.0051C88.6246 51.1374 88.2278 51.1903 87.8839 51.1903C87.54 51.1903 87.2225 51.0316 86.9844 50.7406C86.7463 50.4496 86.6405 50.0263 86.6405 49.4443V45.7141H85.8733V45.5554C86.1643 45.5025 86.4818 45.2908 86.8257 44.894C87.1696 44.4972 87.5135 44.021 87.8045 43.4125H88.0162H87.9897V43.439ZM90.2648 45.9522C90.2648 46.1903 90.1855 46.402 90.0003 46.5871C89.8151 46.7723 89.6035 46.8781 89.3389 46.8781C89.0744 46.8781 88.8892 46.7988 88.704 46.6136C88.5188 46.4284 88.4394 46.2168 88.4394 45.9522C88.4394 45.6877 88.5188 45.476 88.704 45.2908C88.8892 45.1057 89.1008 45.0263 89.3654 45.0263C89.6299 45.0263 89.8415 45.1057 90.0267 45.2908C90.2119 45.476 90.2913 45.6877 90.2913 45.9522H90.2648Z" fill="#004087"/>
<path d="M96.5876 45.5555L98.3865 49.9735L97.831 51.2433H97.6193L95.7675 47.1692L94.2331 51.2433H94.0214L91.5082 45.6613C91.5082 45.6084 91.4818 45.5819 91.4553 45.5555C91.4553 45.5555 91.4288 45.5026 91.4024 45.4761C91.4024 45.4761 91.3759 45.4496 91.3495 45.4232H90.8733V45.2116H93.6246V45.4232H93.4659C93.1749 45.4232 93.0161 45.4232 93.0161 45.4761C93.0161 45.529 93.0426 45.6613 93.1484 45.9523L94.6299 49.6031L95.6352 46.7989C95.5823 46.6666 95.3971 46.2698 95.0796 45.5555C95.0796 45.5555 95.0532 45.5026 95.0267 45.4761C95.0267 45.4761 95.0003 45.4496 94.9738 45.4232H94.6299V45.2116H97.3812V45.4232H97.0638C96.7728 45.4232 96.614 45.4232 96.614 45.4761V45.5555H96.5876ZM98.8892 45.3174C99.0743 45.1322 99.286 45.0528 99.5505 45.0528C99.8151 45.0528 100.027 45.1322 100.212 45.3174C100.397 45.5026 100.476 45.7142 100.476 45.9788C100.476 46.2433 100.397 46.4285 100.212 46.6137C100.027 46.7989 99.8151 46.8782 99.577 46.8782C99.3389 46.8782 99.1008 46.7989 98.9156 46.6137C98.7304 46.4285 98.6511 46.2168 98.6511 45.9523C98.6511 45.6877 98.7304 45.4761 98.9156 45.2909H98.8892V45.3174Z" fill="#004087"/>
<path d="M102.196 45.9523C102.779 45.3968 103.546 45.1322 104.498 45.1322C105.45 45.1322 106.218 45.3968 106.8 45.9523C107.382 46.5079 107.673 47.2222 107.673 48.1481C107.673 49.074 107.382 49.7883 106.8 50.3439C106.218 50.8994 105.45 51.164 104.498 51.164C103.546 51.164 102.779 50.8994 102.196 50.3439C101.614 49.7883 101.323 49.074 101.323 48.1481C101.323 47.2222 101.614 46.5079 102.196 45.9523ZM103.308 50.1851C103.625 50.7142 104.022 50.9788 104.525 50.9788C105.027 50.9788 105.424 50.7142 105.741 50.1851C106.059 49.656 106.218 48.9682 106.218 48.1481C106.218 47.328 106.059 46.6402 105.741 46.1111C105.424 45.582 105.027 45.3174 104.525 45.3174C104.022 45.3174 103.625 45.582 103.308 46.1111C102.99 46.6402 102.831 47.328 102.831 48.1481C102.831 48.9682 102.99 49.656 103.308 50.1851Z" fill="#004087"/>
<path d="M110.741 45.1848V50.7139C110.741 50.7139 110.741 50.7668 110.768 50.7933C110.768 50.7933 110.794 50.8198 110.821 50.8462H111.35V51.0578H108.704V50.8462H109.207C109.26 50.8462 109.286 50.8198 109.313 50.7933C109.339 50.7668 109.366 50.6875 109.366 50.6081V45.7933C109.101 45.6346 108.89 45.4758 108.731 45.3171V45.1848H110.741ZM111.694 46.6928C111.509 46.5076 111.429 46.2959 111.429 46.0314C111.429 45.7668 111.509 45.5552 111.694 45.37C111.879 45.1848 112.091 45.1055 112.355 45.1055C112.62 45.1055 112.831 45.1848 113.017 45.37C113.202 45.5552 113.281 45.7668 113.281 46.0314C113.281 46.2959 113.202 46.5076 113.017 46.6928C112.831 46.878 112.62 46.9573 112.355 46.9573C112.091 46.9573 111.879 46.878 111.694 46.6928Z" fill="#004087"/>
<path d="M115.847 42.0373V50.741C115.847 50.7675 115.847 50.7939 115.874 50.8204C115.874 50.8204 115.9 50.8468 115.926 50.8733H116.456V51.0849H113.81V50.8733H114.313C114.366 50.8733 114.392 50.8468 114.419 50.8204C114.445 50.7939 114.471 50.7146 114.471 50.6352V42.6458C114.207 42.487 113.995 42.3283 113.837 42.1696V42.0373H115.847ZM116.799 46.8786L119.392 50.3706C119.604 50.6616 119.762 50.8204 119.842 50.8733H120.424V51.0849H117.593V50.8733H117.99C117.99 50.8733 117.99 50.7939 117.937 50.7146L115.821 47.8574L116.799 46.8786ZM119.18 46.4818C118.995 46.6669 118.784 46.7463 118.519 46.7463C118.255 46.7463 118.043 46.6669 117.858 46.4818C117.672 46.2966 117.593 46.0849 117.593 45.8204C117.593 45.5558 117.672 45.3442 117.858 45.159C118.043 44.9738 118.255 44.8945 118.519 44.8945C118.784 44.8945 118.995 44.9738 119.18 45.159C119.366 45.3442 119.445 45.5558 119.445 45.8204C119.445 46.0849 119.366 46.2966 119.18 46.4818Z" fill="#004087"/>
<path d="M6.03175 17.5667V43.4926C6.03175 43.9952 5.95238 44.3127 5.79365 44.4979C5.63492 44.6831 5.42328 44.7889 5.18519 44.8418C4.97355 44.8418 4.60318 44.8947 4.07407 44.8947C1.48148 40.5296 0 35.1063 0 30.0005C0 24.8947 1.32275 20.0799 3.65079 15.9C4.33862 16.4291 5.13228 16.9847 6.03175 17.5667Z" fill="url(#paint3_radial_4_294)"/>
<path d="M58.545 26.9049C58.545 26.6933 58.4921 26.4816 58.4656 26.2435C58.4392 26.0319 58.4127 25.7938 58.3863 25.5822C56.2699 11.4552 44.0741 0.635071 29.3651 0.635071C17.1737 0.635071 9.92066 5.97899 4.68257 14.0478C4.62966 14.1271 4.57675 14.18 4.55029 14.2594H13.3334V43.4922C13.3334 43.7568 13.3334 43.9684 13.3334 44.1271C13.3334 44.2859 13.4127 44.4181 13.545 44.524C13.6508 44.6298 13.7566 44.7091 13.836 44.7621C13.9154 44.815 14.1006 44.8414 14.3387 44.8679C14.5767 44.8679 14.7884 44.8679 14.9471 44.8679H16.7725V46.0054H4.76193C7.38098 50.0266 10.9524 53.3599 15.1588 55.688C15.291 55.7673 15.4233 55.8203 15.5556 55.8996C15.8466 56.0584 16.1111 56.1906 16.4021 56.3494C16.508 56.4023 16.6402 56.4816 16.7725 56.5345C16.9842 56.6404 17.1693 56.7197 17.381 56.7991C17.5662 56.8785 17.7514 56.9578 17.9365 57.0372C18.1482 57.1166 18.3863 57.2224 18.5979 57.3017C18.8096 57.3811 19.0476 57.4605 19.2593 57.5663C19.2593 57.5663 19.2593 57.5663 19.2857 57.5663C19.4974 57.6457 19.709 57.725 19.9207 57.8044C22.8836 58.8097 26.0318 59.3388 29.3387 59.3388C39.6297 59.3388 48.7037 54.0478 53.9418 46.0054H42.0106V44.8679H44.418C44.6297 44.8679 44.7884 44.8679 44.8942 44.7621C44.9736 44.6827 45.0794 44.6298 45.1852 44.524C45.291 44.4446 45.3704 44.3123 45.3969 44.1271C45.3969 43.9419 45.3969 43.7568 45.3969 43.5187L45.3175 25.4763C45.3175 23.0689 44.418 20.8203 42.6455 18.6774C41.2699 17.0372 39.5238 15.8467 37.381 15.0795C39.5503 14.2859 42.0106 13.889 44.7619 13.889C47.5133 13.889 48.9683 14.8943 50.4498 16.8785C51.9312 18.8626 52.672 21.4816 52.672 24.6562V43.4393C52.672 43.7039 52.672 43.9155 52.7249 44.0742C52.7778 44.233 52.8572 44.3652 52.963 44.4711C53.0688 44.5769 53.1746 44.6562 53.254 44.7091C53.3334 44.7621 53.5185 44.7885 53.7566 44.815C53.9947 44.815 54.2064 44.8414 54.3651 44.8414H54.6032C57.1958 40.4763 58.6773 35.3705 58.6773 29.9208C58.6773 28.889 58.6244 27.8837 58.5185 26.8785L58.545 26.9049ZM36.508 46.0319H22.3016V44.8943H24.709C24.9207 44.8943 25.0794 44.8943 25.1852 44.7885C25.2646 44.7091 25.3704 44.6562 25.4762 44.5504C25.582 44.4711 25.6614 44.3388 25.7143 44.1536C25.7672 43.9684 25.7937 43.7832 25.7937 43.5451L25.6614 25.5028C25.6614 22.4869 24.7619 19.8943 22.9365 17.725C22.0371 16.6668 20.8995 15.7409 19.4709 14.9208C21.3228 14.2594 23.3334 13.9155 25.4498 13.9155C27.5662 13.9155 29.7884 15.0266 31.1111 17.2753C32.4339 19.524 33.0953 21.9843 33.0953 24.7091V43.4922C33.0953 43.7568 33.0953 43.9684 33.0953 44.1271C33.0953 44.2859 33.1746 44.4181 33.3069 44.524C33.4127 44.6298 33.5185 44.7091 33.5979 44.7621C33.6773 44.815 33.8625 44.8414 34.1006 44.8679C34.3387 44.8679 34.5503 44.8679 34.709 44.8679H36.4815V46.0054L36.508 46.0319Z" fill="url(#paint4_radial_4_294)"/>
</g>
<defs>
<linearGradient id="paint0_linear_4_294" x1="66.1117" y1="28.7037" x2="140.212" y2="29.3651" gradientUnits="userSpaceOnUse">
<stop offset="0.3" stop-color="#00B9EE"/>
<stop offset="0.7" stop-color="#17598F"/>
</linearGradient>
<linearGradient id="paint1_linear_4_294" x1="66.1903" y1="21.3491" x2="140.291" y2="22.0105" gradientUnits="userSpaceOnUse">
<stop offset="0.3" stop-color="#00B9EE"/>
<stop offset="0.7" stop-color="#17598F"/>
</linearGradient>
<linearGradient id="paint2_linear_4_294" x1="66.1373" y1="28.3069" x2="140.211" y2="28.9683" gradientUnits="userSpaceOnUse">
<stop offset="0.3" stop-color="#00B9EE"/>
<stop offset="0.7" stop-color="#17598F"/>
</linearGradient>
<radialGradient id="paint3_radial_4_294" cx="0" cy="0" r="1" gradientUnits="userSpaceOnUse" gradientTransform="translate(3.01587 30.3709) scale(10.4762)">
<stop offset="0.2" stop-color="#E78824"/>
<stop offset="0.9" stop-color="#E65625"/>
</radialGradient>
<radialGradient id="paint4_radial_4_294" cx="0" cy="0" r="1" gradientUnits="userSpaceOnUse" gradientTransform="translate(31.6402 30.0002) scale(28.254 28.254)">
<stop offset="0.2" stop-color="#E78824"/>
<stop offset="0.9" stop-color="#E65625"/>
</radialGradient>
<clipPath id="clip0_4_294">
<rect width="151.561" height="60" fill="white"/>
</clipPath>
</defs>
</svg>
