<svg width="39" height="39" viewBox="0 0 39 39" fill="none" xmlns="http://www.w3.org/2000/svg">
<path d="M4.37781 11.608V28.449C4.37781 28.7755 4.32626 28.9817 4.22315 29.102C4.12004 29.2223 3.98257 29.291 3.8279 29.3254C3.69043 29.3254 3.44984 29.3597 3.10615 29.3597C1.42206 26.5243 0.459717 23.0014 0.459717 19.6848C0.459717 16.3682 1.31895 13.2406 2.8312 10.5254C3.278 10.8691 3.79353 11.23 4.37781 11.608Z" fill="url(#paint0_radial_137_196)"/>
<path d="M38.4893 17.6742C38.4893 17.5367 38.4549 17.3992 38.4377 17.2446C38.4206 17.1071 38.4034 16.9524 38.3862 16.815C37.0114 7.63837 29.0893 0.609863 19.5346 0.609863C11.6153 0.609863 6.90394 4.08116 3.50139 9.32247C3.46702 9.37402 3.43265 9.40839 3.41546 9.45995H9.12076V28.449C9.12076 28.6208 9.12076 28.7583 9.12076 28.8614C9.12076 28.9645 9.17231 29.0504 9.25824 29.1192C9.32697 29.1879 9.39571 29.2395 9.44727 29.2738C9.49882 29.3082 9.61911 29.3254 9.77378 29.3426C9.92844 29.3426 10.0659 29.3426 10.169 29.3426H11.3548V30.0815H3.55294C5.25422 32.6936 7.57414 34.8588 10.3065 36.3711C10.3924 36.4226 10.4783 36.457 10.5643 36.5085C10.7533 36.6117 10.9251 36.6976 11.1142 36.8007C11.1829 36.8351 11.2688 36.8866 11.3548 36.921C11.4922 36.9897 11.6125 37.0413 11.75 37.0928C11.8703 37.1444 11.9906 37.1959 12.1109 37.2475C12.2484 37.299 12.403 37.3678 12.5405 37.4193C12.678 37.4709 12.8326 37.5224 12.9701 37.5912C12.9701 37.5912 12.9701 37.5912 12.9873 37.5912C13.1248 37.6427 13.2623 37.6943 13.3997 37.7458C15.3244 38.3989 17.3694 38.7425 19.5175 38.7425C26.2023 38.7425 32.0966 35.3056 35.4992 30.0815H27.7489V29.3426H29.3127C29.4502 29.3426 29.5533 29.3426 29.622 29.2738C29.6736 29.2223 29.7423 29.1879 29.8111 29.1192C29.8798 29.0676 29.9313 28.9817 29.9485 28.8614C29.9485 28.7411 29.9485 28.6208 29.9485 28.4661L29.897 16.7462C29.897 15.1824 29.3127 13.7217 28.1613 12.3298C27.2677 11.2643 26.1335 10.491 24.7416 9.99267C26.1507 9.47713 27.7489 9.21936 29.5361 9.21936C31.3233 9.21936 32.2685 9.87238 33.2308 11.1612C34.1931 12.4501 34.6743 14.1513 34.6743 16.2135V28.4146C34.6743 28.5864 34.6743 28.7239 34.7087 28.827C34.743 28.9301 34.7946 29.0161 34.8633 29.0848C34.9321 29.1535 35.0008 29.2051 35.0524 29.2395C35.1039 29.2738 35.2242 29.291 35.3789 29.3082C35.5335 29.3082 35.671 29.3254 35.7741 29.3254H35.9288C37.6129 26.4899 38.5752 23.1733 38.5752 19.6332C38.5752 18.963 38.5408 18.31 38.4721 17.657L38.4893 17.6742ZM24.1745 30.0987H14.9463V29.3597H16.5102C16.6476 29.3597 16.7507 29.3597 16.8195 29.291C16.871 29.2395 16.9398 29.2051 17.0085 29.1363C17.0772 29.0848 17.1288 28.9989 17.1632 28.8786C17.1975 28.7583 17.2147 28.638 17.2147 28.4833L17.1288 16.7634C17.1288 14.8044 16.5445 13.1203 15.3588 11.7111C14.7745 11.0237 14.0356 10.4223 13.1076 9.88956C14.3105 9.45995 15.6165 9.23654 16.9913 9.23654C18.3661 9.23654 19.8096 9.9583 20.6688 11.419C21.5281 12.8797 21.9577 14.4779 21.9577 16.2479V28.449C21.9577 28.6208 21.9577 28.7583 21.9577 28.8614C21.9577 28.9645 22.0092 29.0504 22.0952 29.1192C22.1639 29.1879 22.2326 29.2395 22.2842 29.2738C22.3357 29.3082 22.456 29.3254 22.6107 29.3426C22.7654 29.3426 22.9028 29.3426 23.0059 29.3426H24.1573V30.0815L24.1745 30.0987Z" fill="url(#paint1_radial_137_196)"/>
<defs>
<radialGradient id="paint0_radial_137_196" cx="0" cy="0" r="1" gradientUnits="userSpaceOnUse" gradientTransform="translate(19.5175 19.6414) scale(66.2006 13.7779)">
<stop offset="0.2" stop-color="#E78824"/>
<stop offset="0.9" stop-color="#E65625"/>
</radialGradient>
<radialGradient id="paint1_radial_137_196" cx="0" cy="0" r="1" gradientUnits="userSpaceOnUse" gradientTransform="translate(21.0125 19.6848) scale(18.3532 18.3532)">
<stop offset="0.2" stop-color="#E78824"/>
<stop offset="0.9" stop-color="#E65625"/>
</radialGradient>
</defs>
</svg>
